<?xml version="1.0" encoding="UTF-8"?>
<svg xmlns="http://www.w3.org/2000/svg" xmlns:xlink="http://www.w3.org/1999/xlink" width="130px" height="126px" viewBox="0 0 129 126" version="1.1">
<g id="surface1">
<path style=" stroke:none;fill-rule:nonzero;fill:rgb(0%,0%,0%);fill-opacity:1;" d="M 59.125 11.171875 C 53.816406 11.847656 53.75 11.847656 53.75 15.347656 L 53.75 18.507812 L 63.960938 18.507812 C 73.367188 18.578125 74.644531 18.710938 79.148438 20.328125 C 86.46875 22.953125 91.039062 25.980469 97.152344 32.039062 C 101.722656 36.546875 103.132812 38.5 105.6875 43.816406 C 112.808594 58.492188 112.335938 74.507812 104.34375 88.105469 C 101.855469 92.414062 95.472656 99.546875 91.914062 102.039062 L 90.097656 103.316406 L 91.507812 106.480469 C 93.1875 110.382812 93.324219 110.316406 100.578125 103.453125 C 112.605469 92.078125 118.183594 78.144531 117.375 61.652344 C 116.972656 53.105469 115.429688 47.382812 111.464844 39.710938 C 104.679688 26.519531 92.046875 16.492188 77.734375 12.789062 C 72.5625 11.507812 63.359375 10.703125 59.125 11.171875 Z M 59.125 11.171875 "/>
<path style=" stroke:none;fill-rule:nonzero;fill:rgb(0%,0%,0%);fill-opacity:1;" d="M 36.617188 18.914062 C 24.390625 26.722656 15.921875 38.230469 12.363281 52.164062 C 10.75 58.421875 10.75 70.742188 12.296875 76.664062 C 15.25 87.632812 19.148438 94.5 26.875 102.308594 C 36.011719 111.460938 47.097656 116.777344 58.855469 117.585938 L 64.5 117.992188 L 64.5 111.257812 L 59.730469 110.789062 C 54.085938 110.25 46.15625 107.757812 40.984375 104.867188 C 35.476562 101.703125 26.335938 92.210938 23.3125 86.355469 C 16.59375 73.433594 16.394531 56.605469 22.710938 43.953125 C 25.328125 38.769531 30.300781 32.242188 33.660156 29.617188 L 36.28125 27.460938 L 36.28125 44.625 C 36.28125 54.046875 36.484375 64.007812 36.683594 66.835938 L 37.15625 72.019531 L 73.234375 72.019531 L 73.234375 65.289062 L 43.875 65.289062 L 43.46875 49 C 43.203125 40.046875 43 28.875 43 24.097656 C 43 19.382812 42.796875 15.480469 42.53125 15.480469 C 42.195312 15.480469 39.574219 17.027344 36.617188 18.914062 Z M 36.617188 18.914062 "/>
<path style=" stroke:none;fill-rule:nonzero;fill:rgb(0%,0%,0%);fill-opacity:1;" d="M 48.914062 51.085938 L 50.054688 54.519531 L 62.484375 54.652344 C 74.710938 54.855469 74.980469 54.855469 78.070312 56.742188 C 86.875 61.855469 87.007812 74.644531 78.339844 79.757812 C 75.789062 81.242188 74.710938 81.441406 68.664062 81.441406 C 64.902344 81.441406 61.8125 81.644531 61.878906 81.914062 C 61.878906 82.25 65.171875 90.191406 69.136719 99.617188 L 76.324219 116.777344 L 80.15625 116.980469 L 83.917969 117.183594 L 81.363281 110.921875 C 79.886719 107.492188 77.199219 101.097656 75.382812 96.789062 L 72.023438 88.914062 L 75.316406 88.242188 C 85.195312 86.085938 91.644531 78.277344 91.644531 68.316406 C 91.644531 60.171875 87.074219 53.039062 79.683594 49.671875 C 76.527344 48.257812 75.183594 48.125 62.015625 47.921875 L 47.769531 47.722656 Z M 48.914062 51.085938 "/>
</g>
</svg>
